<svg xmlns="http://www.w3.org/2000/svg" id="root" viewBox="0 0 40 41" fill="none" class="dark:hidden" height="40" width="40">
    <circle cx="20" cy="20" r="18" stroke="url(#paint0_linear_371_47826)" stroke-opacity="0.3" stroke-width="4"></circle>
    <circle cx="20" cy="20" r="16.5" fill="#0369A1" stroke="white"></circle>
    <g clip-path="url(#clip0_371_47826)">
        <path d="M16.2499 18.4999H18.4999V16.2499L15.8749 13.6249C16.7146 13.2238 17.658 13.093 18.5752 13.2504C19.4924 13.4077 20.3382 13.8456 20.9962 14.5036C21.6542 15.1616 22.0921 16.0074 22.2494 16.9246C22.4068 17.8418 22.2759 18.7852 21.8749 19.6249L26.3749 24.1249C26.6733 24.4233 26.8409 24.8279 26.8409 25.2499C26.8409 25.6718 26.6733 26.0765 26.3749 26.3749C26.0765 26.6733 25.6718 26.8409 25.2499 26.8409C24.8279 26.8409 24.4233 26.6733 24.1249 26.3749L19.6249 21.8749C18.7852 22.2759 17.8418 22.4068 16.9246 22.2494C16.0074 22.0921 15.1616 21.6542 14.5036 20.9962C13.8456 20.3382 13.4077 19.4924 13.2504 18.5752C13.093 17.658 13.2238 16.7146 13.6249 15.8749L16.2499 18.4999Z" stroke="white" stroke-width="1.6875" stroke-linecap="round" stroke-linejoin="round"></path>
    </g>
    <circle cx="20" cy="20" r="15.5" stroke="url(#paint1_linear_371_47826)" stroke-opacity="0.3"></circle>
    <circle cx="20" cy="20" r="15.5" stroke="url(#paint2_linear_371_47826)" stroke-opacity="0.3"></circle>
    <defs>
        <linearGradient id="paint0_linear_371_47826" x1="-52.0569" y1="-88.3493" x2="40.5249" y2="44.737" gradientUnits="userSpaceOnUse">
            <stop offset="0.63328" stop-color="#0369A1"></stop>
            <stop offset="1" stop-color="#0369A1" stop-opacity="0"></stop>
        </linearGradient>
        <linearGradient id="paint1_linear_371_47826" x1="12.1082" y1="-0.262794" x2="43.0515" y2="46.1521" gradientUnits="userSpaceOnUse">
            <stop stop-color="white"></stop>
            <stop offset="1" stop-color="white" stop-opacity="0"></stop>
        </linearGradient>
        <linearGradient id="paint2_linear_371_47826" x1="12.1082" y1="-0.262794" x2="43.0515" y2="46.1521" gradientUnits="userSpaceOnUse">
            <stop stop-color="#0D0F14"></stop>
            <stop offset="1" stop-color="#0D0F14"></stop>
        </linearGradient>
        <clipPath id="clip0_371_47826">
            <rect width="18" height="18" fill="white" transform="translate(11 11)"></rect>
        </clipPath>
    </defs>
</svg>
